<svg width="191" height="182" viewBox="0 0 191 182" fill="none" xmlns="http://www.w3.org/2000/svg">
<g id="teenyicons:arrow-solid">
<path id="Vector" d="M188.154 46.6786L190.353 12.9426C190.426 11.8242 190.051 10.7226 189.312 9.88024C188.573 9.03786 187.529 8.52368 186.41 8.45079L152.674 6.25241C151.839 6.19649 151.007 6.38978 150.281 6.80777C149.556 7.22576 148.972 7.84962 148.602 8.60027C148.232 9.35091 148.093 10.1945 148.203 11.0242C148.313 11.8539 148.667 12.6322 149.219 13.2605L162.206 28.0481L57.5741 119.869L63.1563 126.23L167.78 34.3995L180.757 49.1949C181.308 49.8246 182.034 50.2765 182.842 50.4932C183.651 50.7099 184.505 50.6817 185.298 50.4122C186.09 50.1427 186.784 49.6439 187.293 48.9793C187.802 48.3146 188.101 47.5139 188.154 46.6786Z" fill="#F6CCB6"/>
<g id="ep:arrow-up-bold">
<path id="Vector_2" d="M60.1639 119.731C61.0557 120.48 61.6141 121.553 61.7151 122.714L64.5852 155.736L64.5943 155.952C64.6161 157.026 64.2437 158.075 63.5422 158.896C62.8404 159.716 61.8621 160.247 60.7972 160.393L60.583 160.417C59.4357 160.517 58.2954 160.162 57.4071 159.429C56.5189 158.696 55.9538 157.643 55.834 156.498L55.8329 156.493L53.3434 127.85L24.7011 130.34C23.5406 130.441 22.3871 130.076 21.4953 129.327C20.6594 128.624 20.1171 127.638 19.9692 126.561L19.9448 126.344C19.8441 125.184 20.2089 124.03 20.9581 123.138C21.7074 122.247 22.7802 121.689 23.9404 121.588L56.9588 118.718L57.1767 118.705C58.2626 118.665 59.3279 119.029 60.1639 119.731Z" fill="#F6CCB6" stroke="#F6CCB6" stroke-width="0.5"/>
</g>
</g>
</svg>
