<svg width="235" height="243" viewBox="0 0 235 243" fill="none" xmlns="http://www.w3.org/2000/svg">
<g clip-path="url(#clip0_1_20)">
<path d="M81.6072 182.552C82.4995 183.173 83.1087 184.123 83.3008 185.193L88.6689 215.124L88.6704 215.128L88.6696 215.128C88.8303 216.123 88.6188 217.14 88.0795 217.986L87.967 218.153C87.3452 219.03 86.4034 219.628 85.345 219.818C84.3528 219.996 83.3322 219.802 82.4769 219.277L82.3087 219.169C81.4208 218.562 80.8066 217.631 80.5984 216.576L80.5975 216.57L75.9527 190.676L50.0593 195.32C48.9889 195.512 47.8858 195.271 46.9933 194.65C46.1565 194.068 45.5686 193.196 45.3402 192.208L45.2994 192.008C45.1078 190.938 45.349 189.836 45.9698 188.944C46.5908 188.051 47.5409 187.441 48.611 187.249L78.5418 181.881L78.7426 181.851C79.7489 181.722 80.7705 181.97 81.6072 182.552Z" fill="#F6CCB6" stroke="#F6CCB6" stroke-width="0.6"/>
</g>
<path d="M197.159 53.3626L187.627 13.9292C187.311 12.6219 186.489 11.4936 185.341 10.7927C184.193 10.0917 182.814 9.87548 181.507 10.1915L142.073 19.7235C141.097 19.9577 140.212 20.4766 139.53 21.2144C138.849 21.9523 138.402 22.8758 138.246 23.8679C138.09 24.8601 138.233 25.8761 138.655 26.7873C139.077 27.6985 139.761 28.4637 140.619 28.9861L160.778 41.2881L73.7098 183.853L82.3767 189.146L169.432 46.5732L189.584 58.8875C190.44 59.412 191.433 59.6704 192.437 59.6299C193.44 59.5894 194.409 59.2519 195.221 58.6601C196.032 58.0683 196.649 57.2489 196.995 56.3058C197.34 55.3627 197.397 54.3383 197.159 53.3626Z" fill="#F6CCB6"/>
<defs>
<clipPath id="clip0_1_20">
<rect width="60.8132" height="60.8132" fill="white" transform="translate(63.735 155) rotate(34.8322)"/>
</clipPath>
</defs>
</svg>
