<svg width="1281" height="832" viewBox="0 0 1281 832" fill="none" xmlns="http://www.w3.org/2000/svg">
<g clip-path="url(#clip0_1353_3945)">
<rect width="2768.63" height="1606.99" transform="translate(-0.384766 -86.2217)" fill="#F6CCB6"/>
<g filter="url(#filter0_f_1353_3945)">
<ellipse cx="120.992" cy="212.958" rx="832.685" ry="648.815" fill="#4D2E5A"/>
</g>
<g filter="url(#filter1_f_1353_3945)">
<ellipse cx="1780.6" cy="299.85" rx="885.124" ry="682.428" fill="#4D2E5A"/>
</g>
<g filter="url(#filter2_f_1353_3945)">
<path d="M2810.6 506.316C2810.6 841.942 2701.63 779.553 2369.72 779.553C2037.8 779.553 1338.99 138.945 1338.99 -196.681C2678.16 506.315 2037.8 -435.857 2369.72 -435.857C2701.63 -435.857 2810.6 170.689 2810.6 506.316Z" fill="#D96C81"/>
</g>
<g filter="url(#filter3_f_1353_3945)">
<path d="M2337.82 1222.32C2337.82 1562.27 2007.51 1837.86 1632.57 1837.86C1257.63 1837.86 870.17 1562.27 870.17 1222.32C870.17 882.364 1257.63 606.776 1632.57 606.776C2007.51 606.776 2337.82 882.364 2337.82 1222.32Z" fill="#4D2E5A"/>
</g>
<g filter="url(#filter4_f_1353_3945)">
<path d="M1587.99 1030.95C1587.99 1298.04 1223.93 1514.56 910.667 1514.56C597.402 1514.56 343.451 1298.04 343.451 1030.94C343.451 763.848 597.402 744.709 910.667 744.709C1223.93 744.709 1587.99 763.85 1587.99 1030.95Z" fill="#D96C81"/>
</g>
<g filter="url(#filter5_f_1353_3945)">
<path d="M158.445 124.377C158.445 270.094 252.834 388.221 96.201 388.221C-60.4318 388.221 -187.408 270.094 -187.408 124.377C-187.408 -21.3398 -60.4318 -139.467 96.201 -139.467C252.834 -139.467 158.445 -21.3398 158.445 124.377Z" fill="#BAA3C0"/>
</g>
<g filter="url(#filter6_f_1353_3945)">
<ellipse cx="1055.38" cy="99.8807" rx="283.609" ry="263.844" fill="#D96C81"/>
</g>
<g filter="url(#filter7_f_1353_3945)">
<path d="M1268.74 -52.8727C1268.74 93.9416 1102.1 212.958 896.529 212.958C690.961 212.958 524.314 93.9416 524.314 -52.8727C524.314 -199.687 690.961 -318.704 896.529 -318.704C1102.1 -318.704 1268.74 -199.687 1268.74 -52.8727Z" fill="#731D1C" fill-opacity="0.9"/>
</g>
<g filter="url(#filter8_f_1353_3945)">
<path d="M384.935 849.197C384.935 1074.54 527.751 1257.21 281.127 1257.21C34.5032 1257.21 -165.425 1074.54 -165.425 849.197C-165.425 623.857 -14.0761 734.509 232.548 734.509C479.172 734.509 384.935 623.857 384.935 849.197Z" fill="#731D1C"/>
</g>
<g filter="url(#filter9_f_1353_3945)">
<path d="M1102.54 635.889C1102.54 748.13 665.841 1090.96 477.151 1090.96C288.462 1090.96 477.152 599.353 477.152 487.112C477.152 374.871 1187.82 427.795 1376.51 427.795C1565.2 427.795 1102.54 523.647 1102.54 635.889Z" fill="url(#paint0_radial_1353_3945)"/>
</g>
<g filter="url(#filter10_f_1353_3945)">
<path d="M556.407 1488.6C647.153 1521.85 397.546 1842.88 371.001 1915.32C344.456 1987.77 261.626 1695.48 170.88 1662.23C80.135 1628.98 159.958 1161.33 186.504 1088.89C213.049 1016.45 609.382 1044.21 556.407 1488.6Z" fill="#D96C81"/>
</g>
<g filter="url(#filter11_f_1353_3945)">
<path d="M2496.01 1086.05C2496.01 1231.77 2318.69 1253.03 2162.06 1253.03C2005.42 1253.03 1643.54 1451.47 1643.54 1305.76C1643.54 1160.04 1864.81 883.916 2021.44 883.916C2178.07 883.916 2496.01 940.331 2496.01 1086.05Z" fill="#731D1C"/>
</g>
</g>
<defs>
<filter id="filter0_f_1353_3945" x="-1053.13" y="-777.296" width="2348.25" height="1980.51" filterUnits="userSpaceOnUse" color-interpolation-filters="sRGB">
<feFlood flood-opacity="0" result="BackgroundImageFix"/>
<feBlend mode="normal" in="SourceGraphic" in2="BackgroundImageFix" result="shape"/>
<feGaussianBlur stdDeviation="170.72" result="effect1_foregroundBlur_1353_3945"/>
</filter>
<filter id="filter1_f_1353_3945" x="554.037" y="-724.018" width="2453.13" height="2047.74" filterUnits="userSpaceOnUse" color-interpolation-filters="sRGB">
<feFlood flood-opacity="0" result="BackgroundImageFix"/>
<feBlend mode="normal" in="SourceGraphic" in2="BackgroundImageFix" result="shape"/>
<feGaussianBlur stdDeviation="170.72" result="effect1_foregroundBlur_1353_3945"/>
</filter>
<filter id="filter2_f_1353_3945" x="774.87" y="-999.975" width="2599.85" height="2348.23" filterUnits="userSpaceOnUse" color-interpolation-filters="sRGB">
<feFlood flood-opacity="0" result="BackgroundImageFix"/>
<feBlend mode="normal" in="SourceGraphic" in2="BackgroundImageFix" result="shape"/>
<feGaussianBlur stdDeviation="282.059" result="effect1_foregroundBlur_1353_3945"/>
</filter>
<filter id="filter3_f_1353_3945" x="528.73" y="265.337" width="2150.53" height="1913.96" filterUnits="userSpaceOnUse" color-interpolation-filters="sRGB">
<feFlood flood-opacity="0" result="BackgroundImageFix"/>
<feBlend mode="normal" in="SourceGraphic" in2="BackgroundImageFix" result="shape"/>
<feGaussianBlur stdDeviation="170.72" result="effect1_foregroundBlur_1353_3945"/>
</filter>
<filter id="filter4_f_1353_3945" x="2.01114" y="403.27" width="1927.42" height="1452.73" filterUnits="userSpaceOnUse" color-interpolation-filters="sRGB">
<feFlood flood-opacity="0" result="BackgroundImageFix"/>
<feBlend mode="normal" in="SourceGraphic" in2="BackgroundImageFix" result="shape"/>
<feGaussianBlur stdDeviation="170.72" result="effect1_foregroundBlur_1353_3945"/>
</filter>
<filter id="filter5_f_1353_3945" x="-528.847" y="-480.906" width="1056.93" height="1210.57" filterUnits="userSpaceOnUse" color-interpolation-filters="sRGB">
<feFlood flood-opacity="0" result="BackgroundImageFix"/>
<feBlend mode="normal" in="SourceGraphic" in2="BackgroundImageFix" result="shape"/>
<feGaussianBlur stdDeviation="170.72" result="effect1_foregroundBlur_1353_3945"/>
</filter>
<filter id="filter6_f_1353_3945" x="430.331" y="-505.403" width="1250.1" height="1210.57" filterUnits="userSpaceOnUse" color-interpolation-filters="sRGB">
<feFlood flood-opacity="0" result="BackgroundImageFix"/>
<feBlend mode="normal" in="SourceGraphic" in2="BackgroundImageFix" result="shape"/>
<feGaussianBlur stdDeviation="170.72" result="effect1_foregroundBlur_1353_3945"/>
</filter>
<filter id="filter7_f_1353_3945" x="182.875" y="-660.143" width="1427.31" height="1214.54" filterUnits="userSpaceOnUse" color-interpolation-filters="sRGB">
<feFlood flood-opacity="0" result="BackgroundImageFix"/>
<feBlend mode="normal" in="SourceGraphic" in2="BackgroundImageFix" result="shape"/>
<feGaussianBlur stdDeviation="170.72" result="effect1_foregroundBlur_1353_3945"/>
</filter>
<filter id="filter8_f_1353_3945" x="-576.142" y="296.627" width="1412.92" height="1371.3" filterUnits="userSpaceOnUse" color-interpolation-filters="sRGB">
<feFlood flood-opacity="0" result="BackgroundImageFix"/>
<feBlend mode="normal" in="SourceGraphic" in2="BackgroundImageFix" result="shape"/>
<feGaussianBlur stdDeviation="205.359" result="effect1_foregroundBlur_1353_3945"/>
</filter>
<filter id="filter9_f_1353_3945" x="113.458" y="135.496" width="1588.12" height="1235.3" filterUnits="userSpaceOnUse" color-interpolation-filters="sRGB">
<feFlood flood-opacity="0" result="BackgroundImageFix"/>
<feBlend mode="normal" in="SourceGraphic" in2="BackgroundImageFix" result="shape"/>
<feGaussianBlur stdDeviation="139.916" result="effect1_foregroundBlur_1353_3945"/>
</filter>
<filter id="filter10_f_1353_3945" x="-264.973" y="664.619" width="1234.79" height="1655.85" filterUnits="userSpaceOnUse" color-interpolation-filters="sRGB">
<feFlood flood-opacity="0" result="BackgroundImageFix"/>
<feBlend mode="normal" in="SourceGraphic" in2="BackgroundImageFix" result="shape"/>
<feGaussianBlur stdDeviation="196.823" result="effect1_foregroundBlur_1353_3945"/>
</filter>
<filter id="filter11_f_1353_3945" x="1173.44" y="413.818" width="1792.66" height="1415.48" filterUnits="userSpaceOnUse" color-interpolation-filters="sRGB">
<feFlood flood-opacity="0" result="BackgroundImageFix"/>
<feBlend mode="normal" in="SourceGraphic" in2="BackgroundImageFix" result="shape"/>
<feGaussianBlur stdDeviation="235.049" result="effect1_foregroundBlur_1353_3945"/>
</filter>
<radialGradient id="paint0_radial_1353_3945" cx="0" cy="0" r="1" gradientUnits="userSpaceOnUse" gradientTransform="translate(907.516 753.145) rotate(90) scale(337.817 514.226)">
<stop stop-color="#D96C81"/>
<stop offset="0.706731" stop-color="#731D1C"/>
</radialGradient>
<clipPath id="clip0_1353_3945">
<rect width="2768.63" height="1606.99" fill="white" transform="translate(-0.384766 -86.2217)"/>
</clipPath>
</defs>
</svg>
