<svg width="286" height="347" viewBox="0 0 286 347" fill="none" xmlns="http://www.w3.org/2000/svg">
<path d="M78.1708 82.8659C97.2197 91.5681 95.3257 114.254 95.3257 114.254C95.3257 114.254 111.141 97.9291 130.333 106.717C144.746 113.306 155.97 132.262 138.029 155.453C120.084 178.665 60.423 190.531 60.423 190.531C60.423 190.531 30.5007 137.711 36.2919 108.956C42.1022 80.2055 62.5888 75.7466 78.1708 82.8659Z" fill="#731D1C"/>
<path d="M132.385 109.975C117.422 103.147 102.648 115.827 97.2678 121.249C96.4947 122.017 95.1924 121.463 95.2126 120.379L95.3764 112.995C102.972 104.538 115.83 100.069 130.335 106.695C136.339 109.433 141.772 114.321 144.789 120.745C141.737 115.916 137.255 112.21 132.385 109.975ZM78.1698 82.8629C82.7669 84.9687 86.5038 87.886 88.8469 91.3986C86.9458 89.4694 84.1937 87.9777 81.384 86.6929C67.2816 80.2395 50.2617 84.8775 46.1102 112.449C42.3334 137.539 64.4202 189.638 64.4202 189.638L60.4064 190.506C60.4064 190.506 30.4997 137.708 36.2909 108.954C42.1012 80.2025 62.553 75.7175 78.1698 82.8629Z" fill="#541312"/>
<path d="M136.541 122.72C134.045 117.559 128.598 112.53 122.365 115.482C118.989 117.079 119.199 121.981 121.309 124.502C124.391 128.189 127.265 130.633 128.515 135.586C129.274 138.572 129.439 141.666 129.174 144.742C129.072 145.949 130.536 146.592 131.352 145.693C136.897 139.59 140.187 130.247 136.541 122.72ZM82.9288 108.964C84.5426 109.437 86.1476 108.228 86.0014 106.54C85.7174 103.444 85.1169 100.349 84.123 97.4585C82.6487 93.1954 78.4791 89.7245 74.8338 90.956C71.0822 92.2273 70.2028 96.7125 71.7552 99.4676C75.0648 105.371 80.6021 108.281 82.9288 108.964Z" fill="#C35756"/>
<path d="M157.552 48.7754C173.85 47.7852 180.859 64.0923 180.859 64.0923C180.859 64.0923 185.762 47.0623 202.19 46.0786C214.524 45.3326 229.194 54.2663 225.343 76.8011C221.498 99.3503 184.785 129.377 184.785 129.377C184.785 129.377 144.838 103.987 138.289 82.0757C131.754 60.1595 144.219 49.5847 157.552 48.7754Z" fill="#731D1C"/>
<path d="M204.796 47.5703C191.996 48.3532 186.474 62.4929 184.758 68.1956C184.507 69.0075 183.408 69.1031 183.025 68.3498L180.432 63.208C182.561 54.6048 189.772 46.8177 202.183 46.0632C207.319 45.7483 212.849 47.1219 217.278 50.4373C213.409 48.2323 208.966 47.3241 204.796 47.5703ZM157.55 48.7744C161.485 48.5393 165.126 49.1779 168.026 50.7369C166.01 50.1057 163.57 50.0874 161.165 50.2326C149.095 50.9582 139.081 60.3861 146.326 80.8828C152.919 99.5341 187.208 127.298 187.208 127.298L184.764 129.366C184.764 129.366 144.837 103.986 138.287 82.0747C131.752 60.1585 144.184 49.5785 157.55 48.7744Z" fill="#541312"/>
<path d="M212.326 54.8185C208.717 52.1807 203.126 50.7151 199.918 55.0312C198.179 57.3673 200.12 60.6637 202.495 61.6258C205.968 63.0342 208.841 63.6625 211.516 66.6139C213.132 68.3907 214.38 70.4599 215.324 72.6736C215.696 73.5417 216.939 73.4481 217.172 72.5305C218.752 66.2984 217.593 58.663 212.326 54.8185ZM170.388 64.9939C171.672 64.7282 172.334 63.308 171.615 62.2002C170.285 60.1731 168.738 58.263 166.995 56.638C164.418 54.2442 160.277 53.3831 158.219 55.5662C156.103 57.8157 157.141 61.2248 159.219 62.5521C163.66 65.4025 168.537 65.3767 170.388 64.9939Z" fill="#C35756"/>
<path d="M97.4892 194.244C129.984 182.392 154.012 211.221 154.012 211.221C154.012 211.221 153.67 173.734 186.376 161.802C210.95 152.831 246.093 162.064 251.898 210.119C257.702 258.174 201.409 341.256 201.409 341.256C201.409 341.256 105.086 313.918 78.5641 273.423C52.0424 232.928 70.9442 203.941 97.4892 194.244Z" fill="#731D1C"/>
<path d="M192.604 163.28C167.117 172.597 164.466 204.615 164.435 217.222C164.422 219.019 162.247 219.887 161.005 218.572L154.086 211.218C153.199 192.492 161.687 170.833 186.389 161.807C196.6 158.079 208.664 157.517 219.667 161.565C210.457 159.387 200.889 160.247 192.604 163.28ZM97.4828 194.246C105.32 191.388 113.098 190.478 119.919 191.883C115.466 191.8 110.497 193.244 105.689 194.995C81.6652 203.769 66.8158 229.84 91.8904 268.409C113.415 301.525 178.118 327.61 199.102 338.919C200.434 339.637 201.387 341.235 201.387 341.235C201.387 341.235 105.064 313.897 78.542 273.402C52.036 232.93 70.8925 203.974 97.4828 194.246Z" fill="#541312"/>
<path d="M220.154 176.106C212.055 171.205 200.046 169.088 194.045 178.766C190.794 184.004 195.462 190.59 200.665 192.194C208.245 194.529 214.396 195.377 220.583 201.115C224.302 204.562 227.297 208.728 229.679 213.216C230.62 214.99 233.23 214.557 233.552 212.58C235.744 199.181 231.952 183.265 220.154 176.106ZM136.351 223.237C138.955 222.29 139.879 219.078 138.041 217.022C134.647 213.199 130.782 209.685 126.619 206.828C120.488 202.623 111.546 202.115 107.898 207.359C104.169 212.727 107.41 219.547 112.163 221.662C122.404 226.203 132.601 224.608 136.351 223.237Z" fill="#C35756"/>
</svg>
