<svg width="286" height="347" viewBox="0 0 286 347" fill="none" xmlns="http://www.w3.org/2000/svg">
<path d="M207.921 82.8661C188.872 91.5683 190.766 114.254 190.766 114.254C190.766 114.254 174.95 97.9293 155.759 106.717C141.345 113.306 130.122 132.262 148.063 155.454C166.008 178.665 225.669 190.532 225.669 190.532C225.669 190.532 255.591 137.711 249.8 108.957C243.99 80.2057 223.503 75.7468 207.921 82.8661Z" fill="#731D1C"/>
<path d="M153.707 109.976C168.67 103.147 183.444 115.827 188.824 121.249C189.597 122.017 190.899 121.463 190.879 120.379L190.715 112.995C183.12 104.539 170.262 100.069 155.756 106.695C149.753 109.433 144.32 114.321 141.303 120.745C144.355 115.916 148.837 112.21 153.707 109.976ZM207.922 82.8632C203.325 84.969 199.588 87.8863 197.245 91.3988C199.146 89.4696 201.898 87.9779 204.708 86.6932C218.81 80.2398 235.83 84.8778 239.982 112.449C243.758 137.539 221.672 189.639 221.672 189.639L225.685 190.506C225.685 190.506 255.592 137.708 249.801 108.954C243.991 80.2028 223.539 75.7177 207.922 82.8632Z" fill="#541312"/>
<path d="M149.551 122.72C152.047 117.559 157.493 112.53 163.727 115.483C167.103 117.079 166.892 121.982 164.783 124.502C161.701 128.19 158.826 130.633 157.577 135.586C156.818 138.572 156.652 141.667 156.918 144.742C157.02 145.949 155.556 146.592 154.74 145.694C149.195 139.59 145.905 130.247 149.551 122.72ZM203.163 108.964C201.549 109.437 199.944 108.228 200.09 106.541C200.374 103.444 200.975 100.349 201.969 97.4588C203.443 93.1956 207.613 89.7248 211.258 90.9562C215.01 92.2275 215.889 96.7127 214.337 99.4678C211.027 105.371 205.49 108.282 203.163 108.964Z" fill="#C35756"/>
<path d="M128.54 48.7759C112.242 47.7857 105.234 64.0928 105.234 64.0928C105.234 64.0928 100.33 47.0628 83.9022 46.0791C71.5681 45.3331 56.8987 54.2668 60.749 76.8016C64.5947 99.3508 101.308 129.377 101.308 129.377C101.308 129.377 141.254 103.988 147.803 82.0762C154.339 60.16 141.873 49.5852 128.54 48.7759Z" fill="#731D1C"/>
<path d="M81.2963 47.5708C94.0962 48.3537 99.618 62.4934 101.334 68.1961C101.585 69.008 102.684 69.1035 103.068 68.3503L105.66 63.2085C103.531 54.6053 96.3198 46.8182 83.9088 46.0637C78.7735 45.7488 73.2436 47.1224 68.8139 50.4378C72.6831 48.2328 77.1258 47.3246 81.2963 47.5708ZM128.542 48.7749C124.607 48.5398 120.966 49.1784 118.067 50.7374C120.082 50.1062 122.523 50.0879 124.927 50.2331C136.997 50.9587 147.012 60.3866 139.767 80.8833C133.173 99.5346 98.884 127.299 98.884 127.299L101.329 129.366C101.329 129.366 141.256 103.987 147.805 82.0752C154.341 60.159 141.908 49.579 128.542 48.7749Z" fill="#541312"/>
<path d="M73.7662 54.819C77.3754 52.1811 82.9664 50.7156 86.1748 55.0317C87.9132 57.3678 85.972 60.6642 83.5968 61.6263C80.1246 63.0347 77.251 63.663 74.5763 66.6144C72.9601 68.3912 71.7122 70.4603 70.7684 72.6741C70.3964 73.5422 69.1531 73.4486 68.9202 72.531C67.3406 66.2989 68.4996 58.6635 73.7662 54.819ZM115.704 64.9944C114.42 64.7286 113.758 63.3085 114.477 62.2007C115.807 60.1736 117.355 58.2635 119.098 56.6385C121.674 54.2447 125.815 53.3836 127.873 55.5667C129.989 57.8162 128.951 61.2253 126.873 62.5526C122.433 65.403 117.555 65.3772 115.704 64.9944Z" fill="#C35756"/>
<path d="M188.603 194.244C156.108 182.392 132.08 211.222 132.08 211.222C132.08 211.222 132.422 173.734 99.7155 161.802C75.142 152.832 39.9983 162.065 34.1942 210.12C28.39 258.174 84.6826 341.256 84.6826 341.256C84.6826 341.256 181.006 313.918 207.528 273.423C234.049 232.929 215.148 203.942 188.603 194.244Z" fill="#731D1C"/>
<path d="M93.4874 163.28C118.974 172.598 121.626 204.615 121.657 217.223C121.669 219.02 123.845 219.887 125.087 218.573L132.006 211.218C132.892 192.492 124.405 170.834 99.7027 161.808C89.4919 158.08 77.4282 157.518 66.4249 161.566C75.6349 159.388 85.2028 160.248 93.4874 163.28ZM188.609 194.246C180.772 191.389 172.994 190.478 166.173 191.884C170.626 191.801 175.595 193.245 180.403 194.995C204.427 203.77 219.276 229.84 194.201 268.41C172.677 301.526 107.974 327.61 86.9898 338.92C85.658 339.638 84.7047 341.236 84.7047 341.236C84.7047 341.236 181.028 313.897 207.55 273.403C234.056 232.931 215.199 203.975 188.609 194.246Z" fill="#541312"/>
<path d="M65.938 176.107C74.0373 171.206 86.0462 169.089 92.0464 178.767C95.2974 184.004 90.63 190.591 85.4271 192.195C77.8471 194.53 71.6954 195.378 65.5086 201.115C61.7896 204.563 58.7949 208.729 56.4127 213.217C55.4717 214.99 52.8621 214.558 52.5401 212.581C50.3473 199.182 54.1393 183.266 65.938 176.107ZM149.741 223.238C147.136 222.291 146.213 219.079 148.051 217.023C151.445 213.2 155.31 209.686 159.473 206.829C165.604 202.624 174.546 202.116 178.194 207.36C181.923 212.728 178.682 219.548 173.929 221.663C163.688 226.204 153.491 224.609 149.741 223.238Z" fill="#C35756"/>
</svg>
